<svg width="33" height="37" viewBox="0 0 33 37" fill="none" xmlns="http://www.w3.org/2000/svg">
<path d="M25.5746 26.2228C23.7051 27.9035 21.2367 28.835 18.5279 28.835C12.5566 28.835 8.17142 24.4499 8.17142 18.4292C8.17142 12.4085 12.4171 8.20791 18.5279 8.20791C21.1895 8.20791 23.7051 9.09439 25.6218 10.775L26.9247 11.8955L32.7136 6.10871L31.2648 4.80154C27.8584 1.72572 23.3359 0 18.5258 0C7.79366 0 0 7.74429 0 18.3841C0 28.9788 7.9804 37 18.5258 37C23.426 37 27.9958 35.2743 31.3592 32.1491L32.7587 30.8419L26.8796 25.0595L25.5746 26.2228Z" fill="#172B33"/>
<path d="M18.2446 12.3164C21.6746 12.3164 24.4542 15.0917 24.4542 18.5239C24.4542 21.9517 21.6746 24.7313 18.2446 24.7313C14.8168 24.7313 12.0393 21.9517 12.0393 18.5239C12.0415 15.0939 14.8189 12.3164 18.2446 12.3164Z" fill="#FF3D2E"/>
</svg>
