<svg width="16" height="16" viewBox="0 0 16 16" fill="none" xmlns="http://www.w3.org/2000/svg">
<path fill-rule="evenodd" clip-rule="evenodd" d="M14.2857 0H1.71429C0.767857 0 0 0.767857 0 1.71429V14.2857C0 15.2321 0.767857 16 1.71429 16H14.2857C15.2321 16 16 15.2321 16 14.2857V1.71429C16 0.767857 15.2321 0 14.2857 0ZM9.90357 13.7036C9.60357 13.7571 9.49286 13.5714 9.49286 13.4179C9.49286 13.3543 9.49363 13.2047 9.49467 13.0041L9.49468 13.0036C9.49679 12.5954 9.5 11.9766 9.5 11.4429C9.5 10.8857 9.31429 10.5321 9.09643 10.3464C10.4179 10.2 11.8107 10.0179 11.8107 7.73571C11.8107 7.08571 11.5786 6.76071 11.2 6.34286C11.2607 6.18929 11.4643 5.55714 11.1393 4.73571C10.6429 4.58214 9.50714 5.375 9.50714 5.375C9.03571 5.24286 8.525 5.175 8.02143 5.175C7.51786 5.175 7.00714 5.24286 6.53571 5.375C6.53571 5.375 5.4 4.58214 4.90357 4.73571C4.57857 5.55357 4.77857 6.18571 4.84286 6.34286C4.46429 6.76071 4.28571 7.08571 4.28571 7.73571C4.28571 10.0071 5.61786 10.2 6.93929 10.3464C6.76786 10.5 6.61429 10.7643 6.56071 11.1429C6.22143 11.2964 5.35357 11.5607 4.83571 10.6464C4.51071 10.0821 3.925 10.0357 3.925 10.0357C3.34643 10.0286 3.88571 10.4 3.88571 10.4C4.27143 10.5786 4.54286 11.2643 4.54286 11.2643C4.88929 12.325 6.54643 11.9679 6.54643 11.9679C6.54643 12.2895 6.54943 12.7417 6.55154 13.06V13.0601L6.55154 13.0604C6.55269 13.2331 6.55357 13.3664 6.55357 13.4179C6.55357 13.5714 6.44643 13.7571 6.14286 13.7036C3.78571 12.9143 2.13571 10.6714 2.13571 8.05C2.13571 4.77143 4.64286 2.28214 7.92143 2.28214C11.2 2.28214 13.8571 4.77143 13.8571 8.05C13.8607 10.6714 12.2607 12.9179 9.90357 13.7036ZM6.26071 11.4607C6.26786 11.5071 6.33214 11.5357 6.4 11.5214C6.47143 11.5071 6.51786 11.4607 6.50714 11.4143C6.5 11.3679 6.43571 11.3393 6.36786 11.3464C6.3 11.3607 6.25357 11.4071 6.26071 11.4607ZM6.06071 11.4893C6.06071 11.5357 6.00714 11.575 5.93571 11.575C5.85714 11.5821 5.80357 11.5429 5.80357 11.4893C5.80357 11.4429 5.85714 11.4036 5.92857 11.4036C5.99643 11.3964 6.06071 11.4357 6.06071 11.4893ZM5.425 11.4964C5.48571 11.5179 5.55714 11.4964 5.57143 11.45C5.58929 11.4036 5.54286 11.35 5.47143 11.3286C5.41071 11.3143 5.33929 11.3357 5.325 11.3821C5.31071 11.4286 5.35714 11.4821 5.425 11.4964ZM5.13214 11.2571C5.1 11.2964 5.03214 11.2893 4.97857 11.2357C4.925 11.1893 4.91071 11.1214 4.94643 11.0893C4.97857 11.05 5.04643 11.0571 5.1 11.1107C5.14643 11.1571 5.16429 11.2286 5.13214 11.2571ZM4.675 10.8786C4.71429 10.9321 4.775 10.9536 4.80714 10.9321C4.84643 10.9036 4.84643 10.8393 4.80714 10.7857C4.775 10.7321 4.71429 10.7071 4.675 10.7393C4.63571 10.7643 4.63571 10.825 4.675 10.8786ZM4.575 10.5857C4.54286 10.6179 4.48929 10.6 4.45 10.5643C4.41071 10.5179 4.40357 10.4643 4.43571 10.4393C4.46786 10.4071 4.52143 10.425 4.56071 10.4607C4.6 10.5071 4.60714 10.5607 4.575 10.5857ZM4.23571 10.3357C4.275 10.3607 4.32143 10.3536 4.33571 10.3214C4.35 10.2929 4.32857 10.2536 4.28214 10.2286C4.23571 10.2107 4.19643 10.2214 4.18214 10.2429C4.16786 10.275 4.18929 10.3143 4.23571 10.3357Z" fill="#021747"/>
</svg>
