<svg width="27" height="37" viewBox="0 0 27 37" fill="none" xmlns="http://www.w3.org/2000/svg">
<path d="M20.9722 31.6744H0C0 34.5908 2.34355 36.95 5.24435 36.95H20.9722C23.8678 36.95 26.2113 34.5856 26.2113 31.6744V9.99915C26.2113 9.89499 26.128 9.80126 26.0238 9.80126H21.1597C21.0555 9.80126 20.9722 9.88979 20.9722 9.99395V31.6692V31.6744ZM20.9722 0C23.8678 0 26.2113 2.36438 26.2113 5.2808H5.24435V26.956C5.24435 27.0602 5.15581 27.1487 5.05165 27.1487H0.192689C0.0885316 27.1487 0 27.0602 0 26.956V5.2808C0 2.36438 2.34355 0 5.24435 0H20.9722Z" fill="#36AA3A"/>
</svg>
