<svg width="16" height="16" viewBox="0 0 16 16" fill="none" xmlns="http://www.w3.org/2000/svg">
<path fill-rule="evenodd" clip-rule="evenodd" d="M1.71429 0H14.2857C15.2325 0 16 0.7675 16 1.71429V14.2857C16 15.2325 15.2325 16 14.2857 16H1.71429C0.7675 16 0 15.2325 0 14.2857V1.71429C0 0.7675 0.7675 0 1.71429 0ZM2.28571 12C2.28571 12.9468 3.05321 13.7143 4 13.7143C4.94679 13.7143 5.71429 12.9468 5.71429 12C5.71429 11.0532 4.94679 10.2857 4 10.2857C3.05321 10.2857 2.28571 11.0532 2.28571 12ZM9.62618 13.7143H8.39993C8.18525 13.7143 8.00525 13.5487 7.99129 13.3345C7.80507 10.4756 5.51832 8.1945 2.66546 8.00868C2.45129 7.99475 2.28571 7.81471 2.28571 7.60007V6.37382C2.28571 6.14043 2.481 5.95321 2.71407 5.96579C6.66214 6.17914 9.82111 9.34207 10.0342 13.2859C10.0468 13.519 9.85957 13.7143 9.62618 13.7143ZM12.0795 13.7143H13.3057C13.5362 13.7143 13.7223 13.5236 13.714 13.2933C13.4999 7.32854 8.70061 2.50118 2.70668 2.286C2.47636 2.27771 2.28571 2.46379 2.28571 2.69429V3.9205C2.28571 4.14054 2.46007 4.31961 2.67996 4.32864C7.55696 4.52861 11.4715 8.44382 11.6714 13.3201C11.6804 13.5399 11.8595 13.7143 12.0795 13.7143Z" fill="#021747"/>
</svg>
