<svg width="72" height="19" viewBox="0 0 72 19" fill="none" xmlns="http://www.w3.org/2000/svg">
<path d="M0.77325 1.2H4.66125V14.832H13.0853V18H0.77325V1.2ZM23.1124 18.288C21.3684 18.288 19.7924 17.912 18.3844 17.16C16.9924 16.408 15.8964 15.376 15.0964 14.064C14.3124 12.736 13.9204 11.248 13.9204 9.6C13.9204 7.952 14.3124 6.472 15.0964 5.16C15.8964 3.832 16.9924 2.792 18.3844 2.04C19.7924 1.288 21.3684 0.912 23.1124 0.912C24.8564 0.912 26.4244 1.288 27.8164 2.04C29.2084 2.792 30.3044 3.832 31.1044 5.16C31.9044 6.472 32.3044 7.952 32.3044 9.6C32.3044 11.248 31.9044 12.736 31.1044 14.064C30.3044 15.376 29.2084 16.408 27.8164 17.16C26.4244 17.912 24.8564 18.288 23.1124 18.288ZM23.1124 14.976C24.1044 14.976 25.0004 14.752 25.8004 14.304C26.6004 13.84 27.2244 13.2 27.6724 12.384C28.1364 11.568 28.3684 10.64 28.3684 9.6C28.3684 8.56 28.1364 7.632 27.6724 6.816C27.2244 6 26.6004 5.368 25.8004 4.92C25.0004 4.456 24.1044 4.224 23.1124 4.224C22.1204 4.224 21.2244 4.456 20.4244 4.92C19.6244 5.368 18.9924 6 18.5284 6.816C18.0804 7.632 17.8564 8.56 17.8564 9.6C17.8564 10.64 18.0804 11.568 18.5284 12.384C18.9924 13.2 19.6244 13.84 20.4244 14.304C21.2244 14.752 22.1204 14.976 23.1124 14.976ZM46.5784 9.336H50.1304V16.152C49.2184 16.84 48.1624 17.368 46.9624 17.736C45.7624 18.104 44.5544 18.288 43.3384 18.288C41.5944 18.288 40.0264 17.92 38.6344 17.184C37.2424 16.432 36.1464 15.4 35.3464 14.088C34.5624 12.76 34.1704 11.264 34.1704 9.6C34.1704 7.936 34.5624 6.448 35.3464 5.136C36.1464 3.808 37.2504 2.776 38.6584 2.04C40.0664 1.288 41.6504 0.912 43.4104 0.912C44.8824 0.912 46.2184 1.16 47.4184 1.656C48.6184 2.152 49.6264 2.872 50.4424 3.816L47.9464 6.12C46.7464 4.856 45.2984 4.224 43.6024 4.224C42.5304 4.224 41.5784 4.448 40.7464 4.896C39.9144 5.344 39.2664 5.976 38.8024 6.792C38.3384 7.608 38.1064 8.544 38.1064 9.6C38.1064 10.64 38.3384 11.568 38.8024 12.384C39.2664 13.2 39.9064 13.84 40.7224 14.304C41.5544 14.752 42.4984 14.976 43.5544 14.976C44.6744 14.976 45.6824 14.736 46.5784 14.256V9.336ZM61.878 18.288C60.134 18.288 58.558 17.912 57.15 17.16C55.758 16.408 54.662 15.376 53.862 14.064C53.078 12.736 52.686 11.248 52.686 9.6C52.686 7.952 53.078 6.472 53.862 5.16C54.662 3.832 55.758 2.792 57.15 2.04C58.558 1.288 60.134 0.912 61.878 0.912C63.622 0.912 65.19 1.288 66.582 2.04C67.974 2.792 69.07 3.832 69.87 5.16C70.67 6.472 71.07 7.952 71.07 9.6C71.07 11.248 70.67 12.736 69.87 14.064C69.07 15.376 67.974 16.408 66.582 17.16C65.19 17.912 63.622 18.288 61.878 18.288ZM61.878 14.976C62.87 14.976 63.766 14.752 64.566 14.304C65.366 13.84 65.99 13.2 66.438 12.384C66.902 11.568 67.134 10.64 67.134 9.6C67.134 8.56 66.902 7.632 66.438 6.816C65.99 6 65.366 5.368 64.566 4.92C63.766 4.456 62.87 4.224 61.878 4.224C60.886 4.224 59.99 4.456 59.19 4.92C58.39 5.368 57.758 6 57.294 6.816C56.846 7.632 56.622 8.56 56.622 9.6C56.622 10.64 56.846 11.568 57.294 12.384C57.758 13.2 58.39 13.84 59.19 14.304C59.99 14.752 60.886 14.976 61.878 14.976Z" fill="#31436A"/>
</svg>
