<svg width="161" height="300" viewBox="0 0 161 300" fill="none" xmlns="http://www.w3.org/2000/svg">
<path d="M92 196.5C84.5 184 66.4 157.7 54 152.5C41.6 147.3 26.8333 183.667 21 200.5L10 198.5M92 196.5L73.2547 224.087C68.3327 231.331 66.8217 240.364 69.1182 248.815L78 281.5L68.5 287.5M92 196.5L112.29 108M115.5 94L112.29 108M112.29 108L130.686 134.996C139.933 148.565 144.116 164.954 142.502 181.295L141 196.5M112.29 108L83.7687 105.064C64.7552 103.107 47.369 93.4601 35.6465 78.3629L21 59.5" stroke="black" stroke-width="8" stroke-linecap="round" stroke-linejoin="round"/>
<path d="M16.76 7.60075L18.7018 14.5654L25.3277 13.6919L26.5904 4.6738L16.76 7.60075Z" fill="#FFB600"/>
<circle cx="30.3003" cy="30.594" r="4.33307" transform="rotate(0.665202 30.3003 30.594)" fill="#625FA6"/>
<path fill-rule="evenodd" clip-rule="evenodd" d="M8.83945 41.1489L32.0488 41.4184C31.7417 42.166 31.6401 43.008 31.8005 43.8615C32.2427 46.2134 34.5076 47.7616 36.8595 47.3194C39.2114 46.8773 40.7596 44.6123 40.3175 42.2604C40.2686 42.0006 40.1975 41.7506 40.1065 41.5119L51.2166 41.6409L51.165 46.0834C51.0291 57.7855 41.4325 67.1618 29.7304 67.026C18.0283 66.8901 8.652 57.2935 8.78787 45.5914L8.83945 41.1489ZM22.9515 55.0855C24.4103 54.8113 25.3705 53.4064 25.0963 51.9476C24.8221 50.4889 23.4172 49.5286 21.9584 49.8028C20.4997 50.0771 19.5394 51.4819 19.8136 52.9407C20.0879 54.3995 21.4927 55.3597 22.9515 55.0855Z" fill="#625FA6"/>
<path fill-rule="evenodd" clip-rule="evenodd" d="M16.2433 5.4465C15.8407 5.52218 15.4883 5.76324 15.2718 6.11103C15.0553 6.45883 14.9946 6.88147 15.1044 7.27613L16.9749 13.9967L15.7005 14.2363C14.9066 14.3855 14.384 15.15 14.5332 15.9439C14.6825 16.7378 15.447 17.2604 16.2409 17.1112L17.1584 16.9387C17.6369 22.1422 16.0689 27.1413 13.0409 31.0473C12.9129 31.196 12.7868 31.3463 12.6627 31.4981L12.6626 31.4982C10.9332 33.6142 9.58381 36.0307 8.69308 38.6328C7.4555 42.2617 7.10118 46.2752 7.86006 50.3121C10.2069 62.796 22.2295 71.0138 34.7134 68.667C47.1973 66.3202 55.415 54.2976 53.0682 41.8137C52.19 37.142 49.9568 33.0677 46.8515 29.9209C45.4521 28.5029 43.8756 27.2732 42.1662 26.262C41.8677 26.0854 41.5651 25.9155 41.2588 25.7524C37.0017 23.2161 33.6997 19.1348 32.2499 14.1017L33.5803 13.8516C34.3742 13.7024 34.8968 12.9378 34.7475 12.1439C34.5983 11.35 33.8337 10.8275 33.0398 10.9767L31.5678 11.2534L30.87 4.31243C30.8291 3.90483 30.619 3.53308 30.291 3.28764C29.963 3.0422 29.5471 2.94558 29.1445 3.02126L16.2433 5.4465ZM18.3499 8.02701L19.8554 13.4366L28.6805 11.7776L28.1188 6.19059L18.3499 8.02701ZM15.1058 33.1346C16.7731 31.0538 18.0765 28.6898 18.9429 26.1494C19.9857 23.0916 20.3953 19.7785 20.0444 16.3962L29.3635 14.6443C30.2631 17.9169 31.8436 20.8503 33.9198 23.3176C35.5468 25.2512 37.4781 26.8987 39.6246 28.199C40.0553 28.46 40.4948 28.707 40.9421 28.9395C45.6125 31.7993 49.1018 36.5481 50.1933 42.3541C52.2416 53.2502 45.069 63.7438 34.1729 65.7921C23.2768 67.8404 12.7833 60.6678 10.735 49.7717C9.61109 43.793 11.2633 37.9356 14.7835 33.5279C14.8924 33.398 14.9998 33.2669 15.1058 33.1346Z" fill="black"/>
<rect x="87" y="36" width="70" height="70" rx="35" fill="white" stroke="black" stroke-width="8"/>
<rect x="90" y="49" width="11" height="11" rx="5.5" fill="black"/>
<rect x="111" y="59" width="11" height="11" rx="5.5" fill="black"/>
</svg>
